<svg xmlns="http://www.w3.org/2000/svg" xmlns:xlink="http://www.w3.org/1999/xlink" x="0px" y="0px"
	 viewBox="0 0 210 74.444" style="enable-background:new 0 0 210 74.444;" xml:space="preserve">
	 
	<path style="fill-rule:evenodd;clip-rule:evenodd;fill:#90B642;" d="M21.027,52.64c0.26-0.203,0.523-0.401,0.791-0.596
		c-5.898-3.681-13.949-4.083-17.36-4.068c0.068,1.36,0.261,2.71,0.576,4.033c2.341-0.049,4.678,0.188,6.962,0.705
		c2.185,0.477,4.288,1.273,6.242,2.361c0.356-0.349,0.723-0.691,1.101-1.025L21.027,52.64z"/>
	<path style="fill-rule:evenodd;clip-rule:evenodd;fill:#90B642;" d="M13.835,60.527c-2.027-1.123-4.193-1.975-6.443-2.533
		c1.175,2.057,2.649,3.929,4.373,5.554c0.106,0.101,0.214,0.202,0.324,0.301c0.501-1.149,1.084-2.261,1.746-3.326 M11.201,55.856
		c-1.688-0.382-3.41-0.59-5.141-0.619c0.289,0.713,0.614,1.411,0.973,2.092c2.678,0.189,5.318,0.732,7.853,1.617
		c0.34-0.472,0.697-0.935,1.069-1.392c-1.505-0.769-3.102-1.342-4.753-1.704"/>
	<path style="fill-rule:evenodd;clip-rule:evenodd;fill:#90B642;" d="M18.025,67.883c0.641,0.313,1.297,0.6,1.969,0.861
		c1.409-4.78,4.457-8.91,8.608-11.666c5.245-3.546,11.447-5.407,17.777-5.336c1.482,0.001,2.962,0.099,4.432,0.294
		c0.954,0.125,1.893,0.292,2.817,0.5c0.097-0.367,0.184-0.737,0.262-1.11l0.307-1.872c0.046-0.379,0.083-0.761,0.11-1.146
		c-1.047-0.203-2.122-0.366-3.226-0.49c-1.562-0.175-3.132-0.261-4.703-0.261c-7.139-0.073-14.159,1.823-20.289,5.478
		c-5.065,2.946-9.011,7.486-11.223,12.912c0.435,0.294,0.881,0.577,1.335,0.851L18.025,67.883z"/>
	<path style="fill-rule:evenodd;clip-rule:evenodd;fill:#90B642;" d="M52.127,56.924c0.155-0.323,0.302-0.649,0.441-0.979
		c-0.725-0.152-1.468-0.278-2.228-0.38c-1.314-0.172-2.639-0.257-3.964-0.254c-5.6-0.074-11.088,1.559-15.736,4.684
		c-3.593,2.367-6.215,5.948-7.386,10.088c0.466,0.113,0.938,0.214,1.414,0.301l2.109,0.298c0.739,0.073,1.487,0.116,2.244,0.128
		c0.871-3.187,2.851-5.959,5.582-7.818c3.457-2.391,7.572-3.65,11.776-3.601c0.784,0.001,1.566,0.044,2.345,0.128
		c0.597,0.063,1.185,0.151,1.762,0.262c0.26-0.387,0.507-0.782,0.743-1.184L52.127,56.924z"/>
	<path style="fill-rule:evenodd;clip-rule:evenodd;fill:#90B642;" d="M35.598,69.9c4.022-0.988,7.721-3.001,10.735-5.842
		c0.371-0.352,0.731-0.714,1.077-1.088c-0.539-0.051-1.101-0.077-1.686-0.078c-3.272-0.046-6.478,0.925-9.174,2.779
		c-1.709,1.172-3.03,2.825-3.795,4.75l0.067-0.008L35.598,69.9z"/>
	<path style="fill:#3F730A;" d="M57.792,8.116v37.413c-0.047,15.663-12.733,28.349-28.396,28.397
		C13.732,73.881,1.044,61.194,1,45.529V6.992l1.025-0.451c8.597-3.905,17.921-5.958,27.362-6.022
		c9.447,0.067,18.775,2.12,27.378,6.026l1.025,0.452L57.792,8.116z M54.361,45.529V9.237c-7.882-3.431-16.377-5.229-24.973-5.285
		C20.796,4.007,12.306,5.805,4.43,9.237v36.291c0.043,13.77,11.195,24.923,24.965,24.966C43.165,70.449,54.315,59.299,54.361,45.529
		"/>
	<path style="fill:#3F730A;" d="M28.759,71.993c0.524-3.92,2.638-7.45,5.845-9.763c3.409-2.512,7.542-3.847,11.776-3.806
		c0.784,0.001,1.567,0.046,2.345,0.134c0.775,0.087,1.544,0.218,2.304,0.393l-0.763,3.337c-0.632-0.147-1.271-0.257-1.916-0.331
		c-0.654-0.073-1.312-0.11-1.97-0.11c-3.489-0.043-6.897,1.048-9.712,3.109c-2.455,1.75-4.085,4.431-4.505,7.417L28.759,71.993z"/>
	<path style="fill:#3F730A;" d="M19.586,70.696c0.952-5.81,4.201-10.993,9.017-14.38c5.175-3.723,11.402-5.698,17.776-5.637
		c1.483,0,2.964,0.104,4.432,0.309c1.454,0.204,2.892,0.51,4.303,0.917l-0.938,3.284c-1.257-0.36-2.537-0.631-3.833-0.81
		c-1.314-0.182-2.638-0.271-3.964-0.27c-5.64-0.065-11.154,1.671-15.74,4.955c-4.076,2.845-6.837,7.21-7.664,12.111L19.586,70.696z"
		/>
	<path style="fill:#3F730A;" d="M11.215,65.935c2.233-6.913,6.843-12.812,13.012-16.649c6.618-4.207,14.31-6.412,22.151-6.351
		c1.707,0.002,3.412,0.104,5.106,0.306c1.68,0.2,3.347,0.502,4.991,0.902l1.328,0.323l-0.022,1.365v0.037l-1.717-0.027l-0.396,1.622
		c-1.512-0.365-3.044-0.64-4.589-0.821c-1.562-0.184-3.132-0.276-4.704-0.275c-7.179-0.065-14.225,1.945-20.289,5.788
		c-5.484,3.397-9.589,8.625-11.588,14.76L11.215,65.935z"/>
	<path style="fill:#3F730A;" d="M2.607,43.33c0.043,0,14.578-1.044,23.203,6.406l-2.237,2.585
		c-7.547-6.517-20.714-5.577-20.751-5.575L2.607,43.33z"/>
	<path style="fill:#3F730A;" d="M2.487,51.162c3.175-0.395,6.395-0.211,9.504,0.545c2.905,0.644,5.636,1.914,8.001,3.719
		l-2.143,2.667c-1.969-1.49-4.237-2.535-6.648-3.064c-2.701-0.658-5.5-0.819-8.259-0.477L2.487,51.162z"/>
	<path style="fill-rule:evenodd;clip-rule:evenodd;fill:#FF7D09;" d="M27.143,33.501c-2.543,1.994-5.818,2.803-8.997,2.222
		c1.676-1.892,3.932-3.177,6.415-3.654c-4.24-0.266-8.218-2.142-11.121-5.243c3.593-0.751,7.334-0.313,10.656,1.249
		c-3.202-2.746-5.301-6.558-5.909-10.732c4.113,1.73,7.403,4.975,9.192,9.063c-1.962-7.317,0.25-12.376,1.993-15.937
		c1.742,3.561,3.954,8.62,1.993,15.938c1.789-4.088,5.079-7.334,9.192-9.064c-0.608,4.173-2.707,7.985-5.909,10.73
		c3.323-1.561,7.062-1.998,10.655-1.247c-2.902,3.101-6.88,4.977-11.12,5.243c2.483,0.478,4.738,1.764,6.414,3.657
		c-3.176,0.576-6.447-0.233-8.988-2.225c-0.446-0.339-0.799-0.612-1.096-0.821c0.576,1.281,0.763,2.703,0.535,4.088
		c-0.913,4.341-6.696,5.87-8.588,2.077c3.591,0,6.662-1.612,5.792-6.166c-0.297,0.21-0.653,0.484-1.101,0.827"/>
	<path style="fill-rule:evenodd;clip-rule:evenodd;fill:#3F730A;" d="M22.37,52.504c0,0-3.695-3.45-15.133-3.517
		c4.89,0.512,9.571,2.253,13.609,5.058C21.082,53.826,22.135,52.724,22.37,52.504"/>
	<path style="fill-rule:evenodd;clip-rule:evenodd;fill:#3F730A;" d="M17.814,59.901c0,0-3.695-3.446-15.133-3.517
		c4.89,0.512,9.571,2.253,13.609,5.058C16.525,61.223,17.579,60.121,17.814,59.901"/>
	<path style="fill-rule:evenodd;clip-rule:evenodd;fill:#3F730A;" d="M15.764,67.82c0,0,3.1-9.118,9.689-12.147
		c-5.034,4.384-7.001,10.706-7.536,12.41c-0.318-0.023-1.833-0.241-2.15-0.263"/>
	<path style="fill-rule:evenodd;clip-rule:evenodd;fill:#3F720A;" d="M24.425,70.636c0,0,2.827-7.859,10.544-11.289
		c-5.175,3.462-7.027,7.838-8.394,11.552C26.258,70.876,24.743,70.658,24.425,70.636"/>
	<path style="fill-rule:evenodd;clip-rule:evenodd;fill:#3F730A;" d="M56.376,48.709c0,0-12.222-2.397-19.69,1.204
		c7.961-1.56,17.066,0.356,18.807,0.771c0.143-0.284,0.739-1.694,0.881-1.981"/>
	<path style="fill-rule:evenodd;clip-rule:evenodd;fill:#3F730A;" d="M54.588,56.284c0,0-9.544-2.461-16.744,1.013
		c5.296-0.918,10.733-0.612,15.893,0.896C53.876,57.919,54.45,56.558,54.588,56.284"/>
	<path style="fill-rule:evenodd;clip-rule:evenodd;fill:#3F730A;" d="M31.367,71.922c0,0,4.705-6.901,13.035-8.289
		c-5.878,2.055-8.766,5.829-11.019,9.082C33.081,72.612,31.669,72.023,31.367,71.922"/>
	<path style="fill-rule:evenodd;clip-rule:evenodd;fill:#3F730A;" d="M38.855,25.342c0.655-0.551,1.113-1.101,1.669-1.651
		c1.895-1.937,4.528-2.969,7.234-2.837c-1.501,2.254-3.898,3.757-6.581,4.129C40.406,25.104,39.684,25.141,38.855,25.342"/>
	<path style="fill-rule:evenodd;clip-rule:evenodd;fill:#3F730A;" d="M18.614,32.499c-0.783,0.032-1.431-0.062-2.154-0.094
		c-2.481-0.147-4.907,0.775-6.665,2.533c2.412,0.605,4.967,0.149,7.019-1.254c0.599-0.395,1.112-0.814,1.799-1.188"/>
	<path style="fill-rule:evenodd;clip-rule:evenodd;fill:#3F730A;" d="M33.818,20.183c0.14-0.875,0.119-1.623,0.179-2.434
		c0.162-2.81,1.519-5.415,3.729-7.157c0.363,2.792-0.486,5.605-2.335,7.729c-0.524,0.622-1.062,1.143-1.573,1.871"/>
	<path style="fill-rule:evenodd;clip-rule:evenodd;fill:#3F730A;" d="M39.874,32.499c0.783,0.032,1.431-0.062,2.154-0.094
		c2.482-0.147,4.908,0.774,6.665,2.533c-2.412,0.605-4.967,0.149-7.019-1.254c-0.599-0.395-1.112-0.814-1.799-1.188"/>
	<path style="fill-rule:evenodd;clip-rule:evenodd;fill:#3F730A;" d="M19.424,25.217c-0.655-0.551-1.113-1.101-1.669-1.651
		c-1.895-1.937-4.527-2.969-7.233-2.837c1.502,2.254,3.898,3.757,6.581,4.129C17.874,24.978,18.596,25.016,19.424,25.217"/>
	<path style="fill-rule:evenodd;clip-rule:evenodd;fill:#3F730A;" d="M24.804,20.183c-0.14-0.875-0.119-1.623-0.179-2.434
		c-0.162-2.81-1.519-5.415-3.729-7.157c-0.363,2.792,0.486,5.605,2.335,7.729c0.524,0.622,1.062,1.143,1.573,1.871"/>
	<path style="fill:#FF7D09;" d="M93.955,28.265h-7.305l-7.53-14.525h-0.126c0.047,0.441,0.089,0.971,0.126,1.594
		c0.037,0.622,0.07,1.253,0.099,1.895c0.028,0.645,0.042,1.225,0.042,1.743v9.293h-4.937V7.647h7.277l7.501,14.329h0.085
		c-0.028-0.452-0.056-0.976-0.085-1.572c-0.029-0.597-0.055-1.201-0.077-1.812c-0.023-0.611-0.035-1.152-0.035-1.622V7.647h4.964
		L93.955,28.265z"/>
	<path style="fill:#FF7D09;" d="M111.059,28.266l-1.01-3.865h-6.699l-1.044,3.863h-6.131l6.726-20.7h7.433l6.811,20.7
		L111.059,28.266z M108.888,19.833l-0.888-3.384c-0.094-0.367-0.23-0.892-0.409-1.572c-0.179-0.681-0.355-1.386-0.53-2.115
		c-0.174-0.728-0.308-1.328-0.402-1.798c-0.084,0.47-0.204,1.051-0.359,1.742c-0.155,0.691-0.315,1.375-0.479,2.052
		c-0.165,0.677-0.308,1.241-0.431,1.693l-0.888,3.384L108.888,19.833z"/>
	<path style="fill:#FF7D09;" d="M128.364,28.265l-4.217-14.846h-0.127c0.037,0.385,0.077,0.907,0.12,1.565
		c0.043,0.659,0.083,1.369,0.12,2.13c0.037,0.761,0.056,1.495,0.056,2.202v8.954h-4.936V7.647h7.418l4.301,14.637h0.11l4.216-14.637
		h7.432v20.618h-5.12v-9.039c0-0.649,0.012-1.346,0.035-2.092c0.023-0.746,0.052-1.452,0.085-2.115
		c0.033-0.661,0.063-1.185,0.091-1.572h-0.126l-4.159,14.819H128.364z"/>
	<path style="fill:#FF7D09;" d="M156.285,28.265l-4.217-14.846h-0.127c0.037,0.385,0.077,0.907,0.12,1.565
		c0.043,0.659,0.083,1.369,0.12,2.13c0.037,0.761,0.056,1.495,0.056,2.202v8.954h-4.936V7.647h7.418l4.301,14.637h0.11l4.22-14.637
		h7.433v20.618h-5.119v-9.039c0-0.649,0.012-1.346,0.035-2.092c0.023-0.746,0.052-1.452,0.085-2.115
		c0.033-0.661,0.063-1.185,0.091-1.572h-0.126l-4.16,14.822L156.285,28.265z"/>
	<path style="fill:#FF7D09;" d="M93.615,48.396c0.016,1.465-0.176,2.925-0.572,4.336c-0.346,1.236-0.954,2.383-1.784,3.363
		c-0.846,0.966-1.916,1.71-3.117,2.164c-1.458,0.535-3.003,0.792-4.555,0.754c-1.531,0.034-3.055-0.222-4.491-0.754
		c-1.2-0.458-2.271-1.197-3.124-2.157c-0.84-0.978-1.461-2.125-1.819-3.364c-0.41-1.42-0.61-2.893-0.592-4.371
		c-0.044-1.918,0.319-3.824,1.065-5.591c0.676-1.547,1.83-2.837,3.292-3.681c3.611-1.741,7.82-1.739,11.43,0.008
		c1.449,0.849,2.584,2.146,3.235,3.694c0.722,1.776,1.073,3.682,1.03,5.599 M79.427,48.396c-0.022,1.082,0.121,2.161,0.423,3.201
		c0.225,0.807,0.693,1.526,1.34,2.058c0.694,0.505,1.54,0.759,2.397,0.719c0.874,0.046,1.737-0.207,2.447-0.719
		c0.641-0.533,1.099-1.253,1.311-2.058c0.287-1.042,0.423-2.12,0.402-3.201c0.075-1.527-0.246-3.047-0.931-4.414
		c-0.668-1.108-1.911-1.738-3.2-1.622c-0.871-0.042-1.73,0.217-2.432,0.733c-0.652,0.542-1.12,1.273-1.34,2.092
		c-0.297,1.045-0.438,2.129-0.417,3.215"/>
	<path style="fill:#FF7D09;" d="M104.094,38.116c1.583-0.044,3.163,0.188,4.668,0.684c1.123,0.37,2.102,1.083,2.799,2.038
		c0.653,1,0.981,2.177,0.938,3.37c0.01,0.782-0.133,1.558-0.424,2.285c-0.281,0.685-0.69,1.31-1.205,1.841
		c-0.551,0.562-1.182,1.04-1.872,1.417l6.008,8.983h-6.318l-4.371-7.502h-1.407v7.502h-5.571V38.116H104.094z M104.009,42.334
		h-1.101v4.71h1.044c0.741,0.031,1.475-0.166,2.101-0.565c0.597-0.49,0.905-1.249,0.818-2.016c0.03-0.598-0.22-1.177-0.676-1.565
		C105.551,42.467,104.78,42.268,104.009,42.334"/>
	<path style="fill:#FF7D09;" d="M125.162,46.661h8.901v11.112c-1.19,0.399-2.412,0.699-3.652,0.896
		c-1.426,0.235-2.87,0.35-4.315,0.346c-1.807,0.041-3.597-0.356-5.218-1.156c-1.505-0.781-2.727-2.013-3.497-3.523
		c-0.899-1.859-1.331-3.909-1.255-5.972c-0.05-1.941,0.376-3.866,1.241-5.605c0.817-1.564,2.094-2.839,3.66-3.653
		c1.84-0.912,3.877-1.355,5.93-1.29c1.232-0.005,2.46,0.117,3.667,0.367c1.034,0.207,2.046,0.519,3.018,0.931l-1.762,4.371
		c-0.736-0.364-1.512-0.64-2.312-0.824c-0.847-0.189-1.713-0.281-2.581-0.275c-1.055-0.053-2.099,0.239-2.973,0.832
		c-0.753,0.562-1.321,1.335-1.63,2.221c-0.348,0.985-0.519,2.023-0.507,3.068c-0.03,1.104,0.154,2.203,0.543,3.236
		c0.31,0.816,0.867,1.516,1.593,2.003c0.763,0.473,1.648,0.711,2.546,0.683c0.328,0,0.731-0.023,1.206-0.07
		c0.363-0.03,0.724-0.086,1.079-0.17v-3.224h-3.681V46.661z"/>
	<path style="fill:#FF7D09;" d="M150.913,58.735l-1.016-3.864h-6.699l-1.044,3.864h-6.121l6.727-20.7h7.433l6.811,20.7H150.913z
		 M148.741,50.301l-0.888-3.384c-0.094-0.367-0.23-0.892-0.409-1.572c-0.179-0.681-0.355-1.386-0.53-2.115
		c-0.174-0.728-0.308-1.328-0.402-1.798c-0.084,0.47-0.204,1.051-0.36,1.742c-0.155,0.691-0.315,1.375-0.479,2.052
		c-0.165,0.677-0.308,1.241-0.431,1.693l-0.888,3.384L148.741,50.301z"/>
	<path style="fill:#FF7D09;" d="M178.863,58.734h-7.306l-7.532-14.525h-0.126c0.047,0.441,0.089,0.971,0.126,1.594
		c0.037,0.622,0.07,1.253,0.099,1.895c0.028,0.645,0.042,1.225,0.042,1.743v9.293h-4.937V38.117h7.277l7.501,14.329h0.085
		c-0.028-0.452-0.056-0.976-0.085-1.572c-0.029-0.597-0.055-1.201-0.077-1.812c-0.023-0.611-0.035-1.152-0.035-1.622v-9.322h4.964
		L178.863,58.734z"/>
	<rect x="183.32" y="38.116" style="fill:#FF7D09;" width="5.599" height="20.618"/>
	<path style="fill:#FF7D09;" d="M202.556,42.389c-0.613-0.01-1.218,0.133-1.762,0.417c-0.53,0.293-0.984,0.707-1.321,1.211
		c-0.392,0.587-0.677,1.238-0.839,1.925c-0.203,0.842-0.3,1.707-0.289,2.573c-0.03,1.111,0.137,2.218,0.493,3.271
		c0.274,0.81,0.8,1.512,1.502,2.002c0.757,0.476,1.64,0.711,2.532,0.678c0.9,0.002,1.796-0.126,2.658-0.381
		c0.874-0.262,1.732-0.568,2.575-0.917v4.71c-0.896,0.399-1.835,0.693-2.799,0.874c-1.002,0.183-2.019,0.272-3.039,0.268
		c-1.92,0.08-3.824-0.381-5.493-1.332c-1.412-0.873-2.512-2.168-3.145-3.702c-0.705-1.748-1.048-3.621-1.009-5.505
		c-0.015-1.455,0.208-2.903,0.661-4.286c0.407-1.245,1.062-2.394,1.924-3.378c0.864-0.967,1.938-1.725,3.138-2.214
		c1.36-0.544,2.816-0.81,4.28-0.783c1.06,0.008,2.116,0.123,3.153,0.346c1.115,0.236,2.198,0.608,3.224,1.105l-1.707,4.385
		c-0.74-0.352-1.504-0.654-2.285-0.902c-0.794-0.248-1.622-0.371-2.453-0.367"/>
	<path style="fill:#A6B234;" d="M74.543,67.512c0.583-0.05,1.166,0.114,1.638,0.46c0.356,0.334,0.545,0.807,0.516,1.294
		c0.002,0.243-0.038,0.483-0.116,0.712c-0.08,0.228-0.211,0.434-0.383,0.601c-0.2,0.188-0.439,0.329-0.7,0.413
		c-0.346,0.109-0.707,0.16-1.069,0.151H73.81v2.17h-0.952v-5.8L74.543,67.512z M74.479,68.306h-0.671v2.039h0.52
		c0.257,0.005,0.514-0.033,0.76-0.11c0.189-0.056,0.355-0.172,0.473-0.33c0.115-0.179,0.172-0.391,0.163-0.604
		c0.022-0.284-0.091-0.562-0.304-0.75C75.143,68.365,74.811,68.279,74.479,68.306"/>
	<path style="fill:#A6B234;" d="M85.171,67.512c0.421-0.012,0.841,0.05,1.24,0.184c0.298,0.101,0.554,0.296,0.73,0.557
		c0.17,0.285,0.254,0.613,0.24,0.945c0.007,0.254-0.048,0.505-0.159,0.732c-0.1,0.196-0.242,0.367-0.416,0.502
		c-0.168,0.129-0.353,0.235-0.551,0.312l1.651,2.567h-1.076l-1.404-2.321h-0.928v2.321h-0.952v-5.8L85.171,67.512z M85.108,68.309
		h-0.615v1.893h0.661c0.339,0.028,0.675-0.059,0.958-0.247c0.208-0.181,0.319-0.45,0.3-0.725c0.027-0.276-0.094-0.547-0.319-0.71
		c-0.301-0.161-0.641-0.234-0.982-0.211"/>
	<path style="fill:#A6B234;" d="M99.569,70.404c0.005,0.413-0.051,0.824-0.168,1.22c-0.101,0.346-0.274,0.668-0.505,0.946
		c-0.229,0.268-0.518,0.476-0.844,0.608c-0.379,0.149-0.784,0.222-1.19,0.213c-0.414,0.009-0.825-0.062-1.211-0.213
		c-0.328-0.131-0.618-0.34-0.847-0.608c-0.23-0.278-0.401-0.601-0.499-0.948c-0.114-0.398-0.169-0.811-0.165-1.225
		c-0.012-0.536,0.089-1.069,0.294-1.565c0.184-0.432,0.499-0.796,0.901-1.039c0.466-0.263,0.996-0.392,1.531-0.371
		c0.526-0.02,1.047,0.108,1.503,0.369c0.399,0.246,0.713,0.608,0.899,1.039c0.21,0.498,0.312,1.035,0.3,1.575 M95.138,70.404
		c-0.009,0.395,0.054,0.788,0.183,1.161c0.105,0.303,0.301,0.566,0.562,0.753c0.601,0.353,1.346,0.353,1.948,0
		c0.259-0.186,0.452-0.45,0.551-0.753c0.125-0.374,0.185-0.767,0.176-1.161c0.031-0.56-0.11-1.116-0.404-1.594
		c-0.303-0.402-0.791-0.621-1.292-0.58c-0.346-0.014-0.686,0.079-0.978,0.264c-0.261,0.186-0.459,0.448-0.565,0.75
		c-0.129,0.373-0.192,0.765-0.183,1.16"/>
	<path style="fill:#A6B234;" d="M111.208,70.356c0.02,0.568-0.106,1.131-0.366,1.636c-0.238,0.435-0.609,0.782-1.059,0.991
		c-0.526,0.234-1.098,0.346-1.673,0.331h-1.611v-5.801h1.785c0.536-0.013,1.068,0.098,1.555,0.324
		c0.427,0.207,0.781,0.541,1.012,0.956c0.252,0.482,0.375,1.021,0.356,1.565 M110.216,70.385c0.016-0.402-0.06-0.803-0.22-1.172
		c-0.138-0.296-0.371-0.537-0.661-0.684c-0.333-0.157-0.698-0.232-1.066-0.22h-0.814v4.209h0.674
		c0.573,0.045,1.14-0.149,1.567-0.535c0.377-0.442,0.563-1.015,0.519-1.594"/>
	<path style="fill:#A6B234;" d="M122.696,67.512v3.756c0.006,0.378-0.081,0.752-0.255,1.087c-0.175,0.324-0.444,0.589-0.771,0.76
		c-0.402,0.2-0.848,0.296-1.297,0.279c-0.622,0.044-1.234-0.167-1.697-0.584c-0.399-0.417-0.61-0.98-0.583-1.557v-3.737h0.956v3.653
		c-0.032,0.388,0.09,0.774,0.342,1.072c0.278,0.249,0.647,0.374,1.019,0.346c0.263,0.01,0.525-0.047,0.76-0.165
		c0.197-0.108,0.352-0.278,0.441-0.483c0.101-0.244,0.15-0.507,0.143-0.771v-3.65L122.696,67.512z"/>
	<path style="fill:#A6B234;" d="M132.336,68.238c-0.256-0.005-0.51,0.047-0.744,0.151c-0.216,0.101-0.405,0.252-0.551,0.441
		c-0.158,0.205-0.275,0.439-0.346,0.688c-0.083,0.295-0.123,0.6-0.119,0.906c-0.009,0.394,0.056,0.786,0.19,1.156
		c0.111,0.303,0.314,0.564,0.58,0.746c0.293,0.183,0.635,0.273,0.98,0.26c0.243,0.001,0.485-0.023,0.722-0.072
		c0.245-0.051,0.486-0.115,0.722-0.195v0.81c-0.23,0.091-0.47,0.159-0.713,0.203c-0.275,0.045-0.555,0.066-0.834,0.064
		c-0.518,0.019-1.03-0.108-1.477-0.369c-0.392-0.248-0.696-0.611-0.871-1.04c-0.2-0.499-0.297-1.034-0.285-1.571
		c-0.004-0.409,0.057-0.816,0.181-1.205c0.112-0.347,0.293-0.668,0.532-0.945c0.237-0.268,0.533-0.479,0.863-0.616
		c0.374-0.153,0.775-0.228,1.178-0.221c0.289,0,0.576,0.034,0.856,0.099c0.271,0.063,0.534,0.155,0.785,0.275l-0.331,0.785
		c-0.206-0.094-0.417-0.175-0.633-0.243c-0.22-0.071-0.45-0.108-0.681-0.11"/>
	<polygon style="fill:#A6B234;" points="142.713,73.312 141.757,73.312 141.757,68.321 140.059,68.321 140.059,67.512 
		144.407,67.512 144.407,68.321 142.713,68.321 	"/>
	<path style="fill:#A6B234;" d="M162.124,71.732c0.009,0.315-0.08,0.625-0.252,0.888c-0.179,0.257-0.431,0.456-0.722,0.572
		c-0.357,0.14-0.738,0.207-1.121,0.198c-0.203,0.001-0.406-0.011-0.607-0.035c-0.186-0.023-0.37-0.06-0.551-0.11
		c-0.161-0.043-0.318-0.099-0.47-0.168v-0.896c0.258,0.11,0.523,0.204,0.793,0.279c0.289,0.083,0.588,0.125,0.888,0.125
		c0.208,0.006,0.415-0.027,0.611-0.098c0.147-0.053,0.274-0.15,0.363-0.277c0.083-0.126,0.125-0.273,0.121-0.423
		c0.005-0.157-0.044-0.31-0.139-0.434c-0.115-0.137-0.257-0.25-0.418-0.33c-0.229-0.12-0.464-0.228-0.704-0.321
		c-0.188-0.073-0.37-0.159-0.544-0.258c-0.168-0.094-0.322-0.211-0.46-0.346c-0.137-0.135-0.246-0.296-0.321-0.472
		c-0.083-0.203-0.123-0.42-0.119-0.639c-0.009-0.299,0.074-0.594,0.238-0.843c0.165-0.24,0.398-0.427,0.668-0.537
		c0.319-0.13,0.661-0.193,1.005-0.186c0.289-0.002,0.577,0.031,0.859,0.097c0.271,0.066,0.537,0.155,0.792,0.268l-0.302,0.771
		c-0.226-0.093-0.458-0.172-0.694-0.236c-0.223-0.059-0.452-0.09-0.683-0.089c-0.175-0.005-0.349,0.027-0.512,0.091
		c-0.129,0.052-0.241,0.142-0.319,0.257c-0.075,0.115-0.113,0.251-0.11,0.388c-0.006,0.153,0.038,0.303,0.125,0.429
		c0.105,0.132,0.238,0.239,0.389,0.314c0.176,0.095,0.402,0.201,0.68,0.317c0.284,0.114,0.557,0.253,0.815,0.417
		c0.21,0.131,0.386,0.31,0.514,0.522c0.126,0.232,0.188,0.495,0.179,0.76"/>
	<polygon style="fill:#A6B234;" points="170.942,73.312 169.986,73.312 169.986,68.321 168.288,68.321 168.288,67.512 
		172.636,67.512 172.636,68.321 170.942,68.321 	"/>
	<path style="fill:#A6B234;" d="M184.358,70.404c0.005,0.413-0.051,0.824-0.168,1.22c-0.101,0.346-0.274,0.668-0.505,0.946
		c-0.229,0.268-0.518,0.476-0.844,0.608c-0.379,0.149-0.784,0.222-1.19,0.213c-0.414,0.009-0.825-0.062-1.211-0.213
		c-0.328-0.131-0.618-0.34-0.847-0.608c-0.23-0.278-0.401-0.601-0.499-0.948c-0.114-0.398-0.169-0.811-0.165-1.225
		c-0.012-0.536,0.089-1.069,0.294-1.565c0.184-0.432,0.499-0.796,0.901-1.039c0.466-0.263,0.997-0.392,1.532-0.371
		c0.525-0.02,1.046,0.108,1.502,0.369c0.399,0.246,0.714,0.608,0.899,1.039c0.21,0.498,0.312,1.035,0.3,1.575 M179.928,70.404
		c-0.009,0.395,0.054,0.788,0.182,1.161c0.105,0.303,0.301,0.566,0.562,0.753c0.601,0.353,1.346,0.353,1.948,0
		c0.259-0.186,0.452-0.45,0.551-0.753c0.125-0.374,0.185-0.767,0.176-1.161c0.031-0.56-0.11-1.116-0.404-1.594
		c-0.303-0.402-0.791-0.621-1.292-0.58c-0.346-0.014-0.686,0.079-0.978,0.264c-0.261,0.186-0.459,0.448-0.565,0.75
		c-0.129,0.373-0.192,0.765-0.183,1.16"/>
	<path style="fill:#A6B234;" d="M192.923,67.512c0.42-0.012,0.841,0.05,1.239,0.184c0.298,0.101,0.555,0.296,0.73,0.557
		c0.17,0.285,0.253,0.613,0.24,0.945c0.007,0.254-0.047,0.505-0.158,0.732c-0.101,0.196-0.243,0.367-0.417,0.502
		c-0.168,0.129-0.353,0.235-0.551,0.312l1.652,2.567h-1.076l-1.404-2.321h-0.928v2.321h-0.952v-5.8L192.923,67.512z M192.859,68.309
		h-0.615v1.893h0.661c0.339,0.028,0.675-0.059,0.958-0.247c0.208-0.181,0.319-0.45,0.3-0.725c0.027-0.276-0.094-0.547-0.319-0.71
		c-0.301-0.161-0.642-0.234-0.982-0.211"/>
	<polygon style="fill:#A6B234;" points="205.454,73.312 202.169,73.312 202.169,67.512 205.454,67.512 205.454,68.313 
		203.121,68.313 203.121,69.889 205.306,69.889 205.306,70.686 203.121,70.686 203.121,72.507 205.454,72.507 	"/>
</svg>
